<svg xmlns="http://www.w3.org/2000/svg" xmlns:xlink="http://www.w3.org/1999/xlink" version="1.1" x="0px" y="0px" viewBox="0 0 100 125" enable-background="new 0 0 100 100" xml:space="preserve"><polyline points="59,8 29,68 56,68 56,88 62,88 62,68 89,68 59,8 "/><path d="M38,74H27.5C20.056,74,14,67.944,14,60.5c0-5.186,3.062-9.97,7.799-12.193l1.723-0.809l-1.188-1.482  C20.807,44.105,20,41.853,20,39.5C20,33.711,24.711,29,30.5,29H32v-1.5C32,21.711,36.711,17,42.5,17c2.44,0,4.758,0.86,6.702,2.486  l1.925-2.3C48.636,15.102,45.654,14,42.5,14c-6.962,0-12.712,5.298-13.425,12.076C22.298,26.788,17,32.539,17,39.5  c0,2.455,0.675,4.822,1.966,6.929C14.076,49.396,11,54.746,11,60.5C11,69.6,18.402,77,27.5,77H38v11h6V74h-1.5H38z"/><text x="0" y="115" fill="#000000" font-size="5px" font-weight="bold" font-family="'Helvetica Neue', Helvetica, Arial-Unicode, Arial, Sans-serif">Created by Musket</text><text x="0" y="120" fill="#000000" font-size="5px" font-weight="bold" font-family="'Helvetica Neue', Helvetica, Arial-Unicode, Arial, Sans-serif">from the Noun Project</text></svg>