<svg xmlns="http://www.w3.org/2000/svg" xmlns:xlink="http://www.w3.org/1999/xlink" version="1.1" x="0px" y="0px" viewBox="0 0 100 125" style="enable-background:new 0 0 100 100;" xml:space="preserve"><g>
  <rect width="100%" height="100%" fill="yellow" fill-opacity=".4"/>
  <polygon style="" points="40.819,84.01 35.715,83.707 35.692,83.803 40.819,84.058 40.949,83.076 40.892,83.495  " fill="none"/><polygon style="" points="41,82 41,82.686 47.428,33.745 41.011,82  " fill="orange"/>
<polygon style="" points="40.819,84.01 40.892,83.495 40.949,83.076 41,82.686 41,82 41.011,82 47.428,33.745    35.715,83.651  " fill="none"/><polygon style="" points="34.241,83.728 48.147,24.778 16.153,81.808  " fill="none"/><polygon style="" points="59.181,84.089 64.317,83.834 52.569,34.037  " fill="none"/><polygon style="" points="65.761,83.728 83.847,81.808 51.853,24.778  " fill="none"/><path d="M95.47,78.652l-0.939-1.076l-3.238,2.826L51,20.224v-4.61c0-0.553-0.447-1-1-1s-1,0.447-1,1v4.61L8.708,80.402L5.47,77.576   L4.53,78.652l4.461,3.895l31.513-47.066L14.377,82.054c-0.117,0.21-0.122,0.464-0.012,0.678c0.11,0.213,0.32,0.356,0.56,0.382   l18.986,2.015l-0.004,0.016l8.154,0.098L42.185,84h15.624l0.129,1.274l8.164-0.252l-0.011,0.03l18.984-1.977   c0.239-0.025,0.449-0.15,0.56-0.363c0.11-0.214,0.105-0.458-0.012-0.668L59.496,35.476l31.513,47.069L95.47,78.652z M41,82.686   v0.013l-0.051,0.377l-0.129,0.982l-5.127-0.255l0.023-0.096l-0.023-0.001l11.735-49.849L41,82.686z M34.241,83.728l-18.088-1.92   l31.994-57.031L34.241,83.728z M59.181,84.089l-6.611-50.052l11.748,49.797L59.181,84.089z M83.847,81.808l-18.086,1.92   l-13.908-58.95L83.847,81.808z"/><polygon points="41,82.699 41,82.686 40.949,83.076  "/><polygon points="35.715,83.707 47.428,33.857 35.692,83.706  " fill="purple"/></g><text x="0" y="115" fill="#000000" font-size="5px" font-weight="bold" font-family="'Helvetica Neue', Helvetica, Arial-Unicode, Arial, Sans-serif">Created by D L</text><text x="0" y="120" fill="#000000" font-size="5px" font-weight="bold" font-family="'Helvetica Neue', Helvetica, Arial-Unicode, Arial, Sans-serif">from the Noun Project</text></svg>
